<svg width="1980" height="160" viewBox="0 0 1980 160" fill="none" xmlns="http://www.w3.org/2000/svg">
<path fill-rule="evenodd" clip-rule="evenodd" d="M1471.14 147.772C1152.06 152.949 735.479 64.7872 433.912 58.5959C247.063 54.7594 104.374 82.396 -21.5263 121.998L-20.596 126.71C105.441 89.6922 248.287 64.3229 435.253 69.5293C737.395 77.9432 1154.74 166.193 1473.63 158.838C1689.75 153.852 1860.65 104.945 2016.98 41.8914L2016.13 37.5832C1859.03 97.8265 1687.5 144.26 1471.14 147.772ZM226.452 -271.508L290.595 -284.172C321.909 -284.838 354.533 -284.502 388.67 -283.01C687.927 -269.933 1102.19 -168.932 1420.44 -158.592C1634.99 -151.62 1805.91 -185.859 1962.6 -233.522L1963.36 -229.684C1807.37 -179.541 1637.04 -143.06 1422.73 -148.478C1104.71 -156.518 689.843 -256.824 390.065 -271.854C331.402 -274.795 277.163 -274.459 226.452 -271.508ZM375.029 -300.843L419.159 -309.555C715.011 -290.258 1110.01 -195.318 1416.21 -184.122C1630.62 -176.283 1801.48 -209.512 1958.14 -256.131L1958.89 -252.334C1802.93 -203.261 1632.65 -167.809 1418.49 -174.088C1100.54 -183.41 685.88 -284.721 386.298 -300.303C382.52 -300.5 378.772 -300.673 375.029 -300.843ZM478.275 -321.227L516.671 -328.808C797.136 -297.898 1139.65 -220.72 1411.99 -209.653C1626.24 -200.946 1797.05 -233.166 1953.67 -278.745L1954.42 -274.987C1798.48 -226.982 1628.25 -192.558 1414.25 -199.697C1129.04 -209.213 766.104 -292.544 478.275 -321.227ZM566.725 -338.69L602.435 -345.741C863.803 -309.897 1163.9 -246.087 1407.76 -235.183C1621.86 -225.61 1792.62 -256.823 1949.21 -301.361L1949.94 -297.642C1794.04 -250.705 1623.86 -217.308 1410.01 -225.307C1154.6 -234.861 836.925 -303.457 566.725 -338.69ZM647.849 -354.707L681.881 -361.426C922.052 -324.297 1185.29 -271.361 1403.53 -260.713C1617.49 -250.276 1788.19 -280.481 1944.74 -323.98L1945.47 -320.302C1789.6 -274.431 1619.46 -242.059 1405.77 -250.917C1176.77 -260.41 897.766 -317.245 647.849 -354.707ZM724.589 -369.858L757.428 -376.342C974.997 -340.252 1204.98 -296.517 1399.31 -286.244C1613.11 -274.941 1783.76 -304.139 1940.28 -346.6L1941 -342.963C1785.15 -298.156 1615.07 -266.809 1401.53 -276.526C1196.96 -285.835 952.514 -332.826 724.589 -369.858ZM798.572 -384.465L830.48 -390.765C1024.4 -357.303 1223.61 -321.539 1395.08 -311.774C1608.73 -299.607 1779.33 -327.802 1935.81 -369.225L1936.52 -365.626C1780.71 -321.885 1610.67 -291.562 1397.29 -302.135C1215.93 -311.122 1003.26 -349.649 798.572 -384.465ZM870.835 -398.733L901.984 -404.883C1071.42 -375.169 1241.63 -346.411 1390.86 -337.304C1604.35 -324.275 1774.9 -351.465 1931.34 -391.852L1932.05 -388.295C1776.26 -345.616 1606.28 -316.316 1393.05 -327.745C1234.18 -336.261 1051.3 -367.388 870.835 -398.733ZM942.174 -412.818L972.696 -418.844C1116.92 -393.661 1259.4 -371.119 1386.63 -362.834C1599.98 -348.943 1770.46 -375.131 1926.88 -414.483L1927.57 -410.965C1771.82 -369.349 1601.88 -341.069 1388.81 -353.354C1252.08 -361.237 1097.59 -385.826 942.174 -412.818ZM1013.29 -426.859L1043.31 -432.786C1161.67 -412.643 1277.24 -395.643 1382.41 -388.366C1595.6 -373.613 1766.03 -398.8 1922.41 -437.118L1923.09 -433.641C1767.37 -393.085 1597.49 -365.826 1384.56 -378.965C1269.97 -386.037 1142.91 -404.813 1013.29 -426.859ZM1084.93 -441.002L1114.59 -446.859C1206.41 -432.013 1295.51 -419.953 1378.18 -413.895C1591.22 -398.282 1761.6 -422.47 1917.94 -459.754L1918.62 -456.318C1762.93 -416.822 1593.09 -390.581 1380.32 -404.574C1288.19 -410.634 1188 -424.244 1084.93 -441.002ZM1157.94 -455.419L1187.47 -461.247C1252.02 -451.684 1314.64 -444.014 1373.96 -439.425C1586.84 -422.952 1757.17 -446.14 1913.47 -482.393L1914.14 -478.997C1758.48 -440.56 1588.7 -415.337 1376.08 -430.183C1307.15 -434.996 1233.72 -444.024 1157.94 -455.419ZM1233.66 -470.367L1263.41 -476.242C1299.79 -471.601 1335.32 -467.76 1369.73 -464.956C1582.46 -447.625 1752.73 -469.815 1909 -505.036L1909.66 -501.681C1754.03 -464.302 1584.3 -440.095 1371.84 -455.793C1327.45 -459.073 1281.2 -464.097 1233.66 -470.367ZM1314.29 -486.286L1345.04 -492.357C1351.9 -491.699 1358.73 -491.065 1365.51 -490.486C1578.09 -472.298 1748.3 -493.49 1904.53 -527.681L1905.18 -524.367C1749.58 -488.046 1579.91 -464.854 1367.6 -481.403C1350.11 -482.766 1332.32 -484.414 1314.29 -486.286ZM1404.53 -504.103L1438.05 -510.721C1615.48 -502.167 1763.14 -521.266 1900.05 -550.331L1900.7 -547.057C1755.33 -514.106 1597.68 -492.586 1404.53 -504.103ZM1515.01 -525.916L1554.34 -533.682C1680.02 -535.723 1790.93 -551.447 1895.58 -572.981L1896.22 -569.748C1780.76 -544.352 1657.56 -526.144 1515.01 -525.916ZM1683.84 -559.25L1750.23 -572.357C1798.84 -578.589 1845.57 -586.562 1891.11 -595.635L1891.74 -592.442C1825.69 -578.362 1757.12 -566.629 1683.84 -559.25ZM1967.07 -210.914L1967.83 -207.037C1811.81 -155.823 1641.43 -118.312 1426.98 -122.867C1108.88 -129.624 693.805 -228.926 393.83 -243.404C196.102 -252.948 48.3859 -225.636 -82.2898 -185.764L-83.1663 -190.204C47.323 -232.971 194.84 -262.793 392.441 -254.542C691.89 -242.039 1106.34 -142.108 1424.66 -133.061C1639.37 -126.958 1810.34 -162.208 1967.07 -210.914ZM1971.53 -188.31L1972.3 -184.394C1816.25 -132.109 1645.83 -93.5672 1431.22 -97.2589C1113.05 -102.733 697.768 -201.029 397.596 -214.957C200.859 -224.086 53.5695 -196.971 -76.6833 -157.368L-77.5655 -161.836C52.5054 -204.305 199.601 -233.904 396.211 -226.076C695.853 -214.147 1110.5 -115.285 1428.89 -107.531C1643.75 -102.298 1814.76 -138.56 1971.53 -188.31ZM1975.99 -165.708L1976.77 -161.752C1820.7 -108.395 1650.22 -68.821 1435.46 -71.6488C1117.22 -75.8401 701.731 -173.132 401.362 -186.508C205.609 -195.226 58.7555 -168.298 -71.0747 -128.961L-71.9622 -133.456C57.6919 -175.629 204.356 -205.017 399.981 -197.609C699.815 -186.253 1114.66 -88.4621 1433.11 -82.0009C1648.12 -77.6388 1819.19 -114.913 1975.99 -165.708ZM1980.45 -143.109L1981.24 -139.113C1825.14 -84.6828 1654.61 -44.0767 1439.7 -46.0399C1121.38 -48.9475 705.694 -145.235 405.127 -158.059C210.359 -166.37 63.9413 -139.628 -65.4667 -100.557L-66.3591 -105.077C62.8778 -146.956 209.109 -176.136 403.752 -169.142C703.778 -158.36 1118.81 -61.639 1437.34 -56.4711C1652.5 -52.98 1823.62 -91.2682 1980.45 -143.109ZM1984.92 -120.514L1985.71 -116.479C1829.58 -60.9745 1659.01 -19.3336 1443.94 -20.4303C1125.55 -22.0553 709.656 -117.339 408.893 -129.612C215.108 -137.519 69.1269 -110.964 -59.8591 -72.1548L-60.7566 -76.7004C68.0627 -118.288 213.862 -147.26 407.522 -140.675C707.74 -130.467 1122.97 -34.816 1441.56 -30.9407C1656.87 -28.3226 1828.05 -67.6266 1984.92 -120.514ZM1989.38 -97.9189L1990.18 -93.8449C1834.02 -37.2642 1663.4 5.41145 1448.18 5.18054C1129.72 4.8378 713.619 -89.4388 412.659 -101.162C219.858 -108.671 74.3117 -82.3001 -54.2516 -43.7531L-55.1538 -48.3228C73.247 -89.6199 218.613 -118.386 411.291 -112.207C711.703 -102.572 1127.12 -7.99089 1445.79 -5.40906C1661.25 -3.66398 1832.47 -43.9831 1989.38 -97.9189ZM1993.84 -75.329L1994.65 -71.2158C1838.46 -13.5592 1667.79 30.1532 1452.42 30.79C1133.89 31.7301 717.582 -61.5427 416.424 -72.7136C224.6 -79.8284 79.5013 -53.6297 -48.6421 -15.3415L-49.5498 -19.9388C78.434 -60.9482 223.359 -89.5176 415.062 -83.7398C715.666 -74.6797 1131.28 18.8321 1450.01 20.1202C1665.62 20.991 1836.9 -20.3442 1993.84 -75.329ZM1998.3 -52.7417L1999.12 -48.5893C1842.9 10.1451 1672.19 54.894 1456.66 56.3987C1138.06 58.6225 721.544 -33.6453 420.19 -44.2656C229.341 -50.9906 84.6895 -24.9624 -43.033 13.068L-43.9452 8.4479C83.6231 -32.2763 228.104 -60.6547 418.832 -55.2729C719.628 -46.7857 1135.43 45.6551 1454.24 45.6506C1670 45.6465 1841.33 3.29296 1998.3 -52.7417ZM2002.76 -30.1564L2003.58 -25.9647C1847.34 33.8474 1676.58 79.6351 1460.9 82.0091C1142.23 85.5157 725.507 -5.74847 423.955 -15.8161C234.081 -22.156 89.8756 3.70125 -37.4243 41.4757L-38.341 36.8326C88.8103 -3.60747 232.847 -31.7941 422.602 -26.8054C723.592 -18.8931 1139.59 72.4791 1458.46 71.181C1674.38 70.3011 1845.75 26.9291 2002.76 -30.1564ZM2007.21 -7.57368L2008.05 -3.34267C1851.78 57.5491 1680.97 104.375 1465.14 107.618C1146.4 112.407 729.47 22.149 427.721 12.6326C238.821 6.67464 95.0618 32.3615 -31.816 69.8813L-32.7372 65.2154C93.996 25.0576 237.59 -2.93828 426.372 1.6615C727.553 9.00055 1143.75 99.3026 1462.69 96.7109C1678.75 94.9548 1850.18 50.5636 2007.21 -7.57368ZM2011.67 15.0071L2012.52 19.2766C1856.21 81.2482 1685.36 129.114 1469.39 133.229C1150.57 139.301 733.433 50.0469 431.486 41.0814C243.555 35.5016 100.252 61.0284 -26.206 98.2955L-27.1321 93.6047C99.1845 53.7262 242.329 25.9135 430.142 30.1298C731.517 36.895 1147.9 126.126 1466.91 122.243C1683.12 119.61 1854.6 74.1974 2011.67 15.0071Z" fill="url(#paint0_linear_72_783)"/>
<defs>
<linearGradient id="paint0_linear_72_783" x1="132.18" y1="484.835" x2="1969.82" y2="-61.2459" gradientUnits="userSpaceOnUse">
<stop stop-color="#223269"/>
<stop offset="1" stop-color="#00DEA3"/>
</linearGradient>
</defs>
</svg>
